<svg width="66" height="72" viewBox="0 0 66 72" fill="none" xmlns="http://www.w3.org/2000/svg">
<path fill-rule="evenodd" clip-rule="evenodd" d="M17.19 69.3097C16.7238 69.7757 16.1299 70.0931 15.4834 70.2216C14.8369 70.3502 14.1668 70.2842 13.5578 70.0319C12.9488 69.7797 12.4283 69.3526 12.062 68.8045C11.6957 68.2565 11.5001 67.6122 11.5 66.953V61.6663H8.16667C6.39856 61.6663 4.70286 60.964 3.45262 59.7137C2.20238 58.4635 1.5 56.7678 1.5 54.9997V24.9997C1.5 23.2316 2.20238 21.5359 3.45262 20.2856C4.70286 19.0354 6.39856 18.333 8.16667 18.333H58.1667C59.9348 18.333 61.6305 19.0354 62.8807 20.2856C64.131 21.5359 64.8333 23.2316 64.8333 24.9997V54.9997C64.8333 56.7678 64.131 58.4635 62.8807 59.7137C61.6305 60.964 59.9348 61.6663 58.1667 61.6663H24.8333L17.19 69.3097Z" stroke="#A162F7" stroke-width="2" stroke-linecap="round"/>
<path d="M33.1667 16.6663V13.333" stroke="#A162F7" stroke-width="2" stroke-linecap="square"/>
<path d="M19.8333 45C22.5947 45 24.8333 42.7614 24.8333 40C24.8333 37.2386 22.5947 35 19.8333 35C17.0718 35 14.8333 37.2386 14.8333 40C14.8333 42.7614 17.0718 45 19.8333 45Z" fill="#A162F7"/>
<path d="M46.5 45C49.2614 45 51.5 42.7614 51.5 40C51.5 37.2386 49.2614 35 46.5 35C43.7386 35 41.5 37.2386 41.5 40C41.5 42.7614 43.7386 45 46.5 45Z" fill="#A162F7"/>
<path d="M33.1667 11.6665C35.9282 11.6665 38.1667 9.42793 38.1667 6.6665C38.1667 3.90508 35.9282 1.6665 33.1667 1.6665C30.4053 1.6665 28.1667 3.90508 28.1667 6.6665C28.1667 9.42793 30.4053 11.6665 33.1667 11.6665Z" stroke="#A162F7" stroke-width="2"/>
<path d="M38.1667 53.333H28.1667C27.2462 53.333 26.5 54.0792 26.5 54.9997C26.5 55.9201 27.2462 56.6663 28.1667 56.6663H38.1667C39.0871 56.6663 39.8333 55.9201 39.8333 54.9997C39.8333 54.0792 39.0871 53.333 38.1667 53.333Z" stroke="#A162F7" stroke-width="2"/>
<path d="M18.1667 51.6663C12.6434 51.6663 8.16675 46.443 8.16675 39.9997C8.16675 33.5563 12.6434 28.333 18.1667 28.333H48.1667C53.6901 28.333 58.1667 33.5563 58.1667 39.9997C58.1667 46.443 53.6901 51.6663 48.1667 51.6663" stroke="#A162F7" stroke-width="2" stroke-linecap="round"/>
</svg>
