<svg width="81" height="81" viewBox="0 0 81 81" fill="none" xmlns="http://www.w3.org/2000/svg">
<path d="M29.836 10.0268C23.19 10.1893 16.8065 13.6906 13.2539 19.8705C9.83756 25.8135 9.73183 33.1329 13.0196 39.1479L13.1954 39.4994C13.1919 39.6771 13.1954 39.8482 13.1954 40.0268C13.1954 40.2016 13.192 40.3801 13.1954 40.5541L13.0196 40.9057C9.73183 46.9207 9.83756 54.24 13.2539 60.183C17.314 67.2458 25.0916 70.8371 32.7071 69.9096C35.2456 69.6004 37.7942 68.802 40.1485 67.4486L40.5 67.2143L40.9102 67.4486C43.2644 68.802 45.7545 69.6004 48.293 69.9096C55.9085 70.8371 63.6861 67.2458 67.7461 60.183C71.1625 54.24 71.2682 46.9207 67.9805 40.9057L67.5704 40.1439C67.5705 40.1052 67.5704 40.0655 67.5704 40.0268C67.5704 39.9872 67.5705 39.9491 67.5704 39.9096L67.9805 39.1479C71.2682 33.1329 71.1625 25.8135 67.7461 19.8705C63.6861 12.8078 55.9085 9.21639 48.293 10.1439C45.7545 10.4531 43.2644 11.2515 40.9102 12.6049L40.5 12.8393L40.1485 12.6049C37.7942 11.2515 35.2456 10.4531 32.7071 10.1439C31.7551 10.028 30.7854 10.0035 29.836 10.0268ZM30.7735 11.9018C32.7864 11.9513 34.7994 12.3732 36.75 13.1322C34.2934 13.4664 31.9261 14.1148 29.7188 15.0658C29.6984 15.0845 29.6789 15.104 29.6602 15.1244C22.67 18.1598 17.2149 24.0434 14.7188 31.2963C14.7107 31.3198 14.6682 31.3313 14.6602 31.3549C14.6104 31.4271 14.5709 31.506 14.543 31.5893C14.4989 31.7228 14.4679 31.865 14.4258 31.9994C14.2302 32.627 14.0487 33.2865 13.8985 33.933C13.7678 34.4947 13.6418 35.0581 13.5469 35.6322C11.8308 30.7841 12.2831 25.3507 14.8946 20.808C18.2691 14.9379 24.4584 11.7463 30.7735 11.9018ZM50.2266 11.9018C56.559 11.7463 62.7896 14.9379 66.1641 20.808C68.8831 25.5378 69.1912 31.22 67.2188 36.2182C67.1391 35.6714 67.0967 35.1136 66.9844 34.5775C66.6149 32.7861 66.0496 31.0679 65.3438 29.4213C65.3191 29.3638 65.3102 29.3028 65.2852 29.2455C62.2501 22.298 56.3822 16.8605 49.1719 14.3627C49.1533 14.3423 49.1337 14.3228 49.1133 14.3041C49.0962 14.2982 49.0719 14.31 49.0547 14.3041C48.9825 14.2543 48.9036 14.2148 48.8204 14.1869C47.3493 13.703 45.8205 13.3583 44.25 13.1322C46.2028 12.3732 48.2082 11.9513 50.2266 11.9018ZM40.0313 14.7143C40.149 14.7126 40.2648 14.7143 40.3829 14.7143C41.2528 14.7143 42.1129 14.8032 42.961 14.89C43.2685 14.9313 43.5945 14.954 43.8985 15.0072C43.9585 15.0157 44.0143 15.0569 44.0743 15.0658C45.1525 15.2628 46.1992 15.5299 47.2383 15.8275L44.0157 24.558C42.8462 24.2878 41.6384 24.0893 40.3829 24.0893C39.5135 24.0893 38.6817 24.1671 37.8633 24.3236C37.0364 24.4534 36.2394 24.6591 35.461 24.9096L31.4766 16.4135C32.8644 15.8864 34.3248 15.4761 35.8125 15.183C37.1829 14.9305 38.5954 14.7342 40.0313 14.7143ZM49.0547 16.2963C55.3319 18.6068 60.4615 23.3522 63.293 29.3627L54.8555 33.2885C53.0851 29.4692 49.8254 26.5275 45.8321 25.0854L49.0547 16.2963ZM29.7774 17.1166L33.7032 25.6127C29.8876 27.3687 26.8981 30.5444 25.4414 34.5189L16.6524 31.2963C18.9879 25.0232 23.7461 19.9247 29.7774 17.1166ZM40.3829 25.9643C41.081 25.9643 41.7708 26.0398 42.4336 26.14C42.4939 26.1486 42.5494 26.1894 42.6094 26.1986C43.2079 26.2973 43.7914 26.3823 44.3672 26.5502C44.4035 26.5606 44.4483 26.5395 44.4844 26.5502C44.5031 26.5706 44.5226 26.5901 44.543 26.6088C48.6327 27.8438 51.8925 30.8238 53.4493 34.7533C53.4487 34.7728 53.4487 34.7924 53.4493 34.8119C53.5779 35.1404 53.6965 35.4674 53.8008 35.808C53.9363 36.2503 54.0598 36.7536 54.1524 37.2143C54.1641 37.2743 54.2 37.3298 54.211 37.39C54.272 37.7153 54.2894 38.0528 54.3282 38.3861C54.3886 38.9294 54.4454 39.4699 54.4454 40.0268C54.4454 40.7249 54.3698 41.4147 54.2696 42.0775C54.1694 42.7404 54.0445 43.3763 53.8594 44.0111C53.857 44.0502 53.857 44.0893 53.8594 44.1283C53.8473 44.1692 53.8133 44.2048 53.8008 44.2455C53.8002 44.265 53.8002 44.2846 53.8008 44.3041C52.5718 48.2597 49.6683 51.4558 45.8907 53.0346C45.7905 53.0383 45.6916 53.0581 45.5977 53.0932C45.5573 53.1099 45.5182 53.1295 45.4805 53.1518C44.2899 53.6102 43.0468 53.9103 41.7305 54.0307C41.2906 54.0709 40.8345 54.0893 40.3829 54.0893C38.9882 54.0893 37.67 53.874 36.3985 53.5033C36.3046 53.4683 36.2057 53.4485 36.1055 53.4447C32.0752 52.1861 28.8571 49.1891 27.3164 45.3002C27.2937 45.2427 27.2799 45.1823 27.2579 45.1244C27.1438 44.8283 27.0588 44.5494 26.9649 44.2455C26.8294 43.8032 26.7059 43.3585 26.6133 42.8979C26.5977 42.82 26.5691 42.7418 26.5547 42.6635C26.515 42.4498 26.4675 42.2362 26.4375 42.0189C26.4084 41.8062 26.3987 41.5903 26.3789 41.3744C26.3388 40.9356 26.3204 40.4795 26.3204 40.0268C26.3204 39.4729 26.3774 38.9806 26.4375 38.4447C26.4819 38.05 26.5379 37.6563 26.6133 37.2729C26.6321 37.1772 26.6512 37.0747 26.6719 36.9799C26.7442 36.6502 26.8136 36.3016 26.9063 35.9838C26.9069 35.9643 26.9069 35.9447 26.9063 35.9252C28.1469 31.746 31.251 28.4382 35.2852 26.9018C36.0026 26.6255 36.7482 26.4133 37.5118 26.2572C38.4331 26.0721 39.4012 25.9643 40.3829 25.9643ZM63.9961 31.1205C64.2597 31.8144 64.4905 32.5683 64.6993 33.2885C64.908 34.0086 65.0801 34.7126 65.2266 35.4564C65.3731 36.2003 65.5012 36.9765 65.5782 37.7416C65.6551 38.5067 65.6954 39.243 65.6954 40.0268C65.6954 42.4112 65.2095 44.6312 64.5821 46.8236L55.9102 43.6596C56.0451 43.0716 56.076 42.4548 56.1446 41.8432C56.2115 41.2459 56.3204 40.6429 56.3204 40.0268C56.3204 39.4675 56.2724 38.9235 56.2032 38.3861C56.1732 38.0879 56.132 37.8002 56.086 37.5072C56.0789 37.47 56.0934 37.4272 56.086 37.39C55.9536 36.5847 55.8057 35.8051 55.5586 35.0463L63.9961 31.1205ZM16.1836 33.1713L24.8555 36.3354C24.5769 37.5217 24.4454 38.7514 24.4454 40.0268C24.4454 40.4611 24.4555 40.9 24.5039 41.3158C24.6021 42.5598 24.8431 43.8038 25.2071 44.9486L16.7696 48.8744C16.2422 47.4862 15.8321 46.0702 15.5391 44.5971C15.3926 43.8605 15.2644 43.13 15.1875 42.3705C15.1433 41.9339 15.1483 41.4673 15.1289 41.0229C15.1158 40.6896 15.0704 40.3631 15.0704 40.0268C15.0704 39.6884 15.1105 39.3646 15.1289 39.0307C15.139 38.7764 15.1113 38.5213 15.1289 38.2689C15.1385 38.1676 15.1765 38.077 15.1875 37.976C15.2402 37.4961 15.2809 37.0411 15.3633 36.5697C15.563 35.4285 15.8689 34.2687 16.1836 33.1713ZM67.2774 43.8939C69.2173 48.8741 68.8698 54.5389 66.1641 59.2455C61.7045 67.0032 52.2823 70.0951 44.1914 66.9213C54.4423 65.456 62.8736 58.2288 66.1055 48.64C66.1553 48.5678 66.1948 48.4889 66.2227 48.4057C66.2557 48.3052 66.308 48.2135 66.3399 48.1127C66.4124 47.881 66.4492 47.6439 66.5157 47.4096C66.695 46.7856 66.8501 46.1731 66.9844 45.5346C67.0993 44.9886 67.1967 44.451 67.2774 43.8939ZM13.5469 44.4213C13.7531 45.6857 14.0498 46.9117 14.4258 48.1127C14.6938 48.962 15.0182 49.7615 15.3633 50.5736C15.3912 50.6569 15.4307 50.7358 15.4805 50.808C18.5546 57.8485 24.4868 63.3557 31.8282 65.808C31.8468 65.8284 31.8664 65.8479 31.8868 65.8666C31.9046 65.8725 31.9275 65.8607 31.9454 65.8666C31.9866 65.8802 32.0212 65.9118 32.0625 65.9252C32.3078 66.0045 32.576 66.0286 32.8243 66.101C33.3326 66.2491 33.8273 66.3925 34.3477 66.5111C35.1347 66.692 35.9393 66.8696 36.75 66.9799C28.6843 70.107 19.3409 66.9802 14.8946 59.2455C12.2831 54.7029 11.8308 49.2695 13.5469 44.4213ZM55.3829 45.476L64.1133 48.6986C61.7898 55.0113 57.0471 60.1742 50.9883 62.9955L47.1211 54.4994C50.9527 52.7204 53.9491 49.4901 55.3829 45.476ZM25.9102 46.7064C27.6621 50.5409 30.8868 53.5065 34.875 54.9682L31.6524 63.7572C25.3616 61.4234 20.2248 56.6795 17.4141 50.6322L25.9102 46.7064ZM45.3633 55.2025L49.2891 63.64C46.5131 64.6947 43.5172 65.3393 40.3829 65.3393C40.2637 65.3393 40.1499 65.3416 40.0313 65.3393C39.4994 65.3319 38.973 65.3208 38.4493 65.2807C36.761 65.1064 35.1197 64.6826 33.5274 64.226L36.6914 55.5541C37.8778 55.8327 39.1074 55.9643 40.3829 55.9643C42.1273 55.9643 43.7965 55.7128 45.3633 55.2025Z" fill="#A162F7"/>
</svg>
