<svg width="81" height="80" viewBox="0 0 81 80" fill="none" xmlns="http://www.w3.org/2000/svg">
<path d="M21.1897 26.207C17.1658 26.207 13.3066 27.8055 10.4612 30.6509C7.61585 33.4963 6.01733 37.3555 6.01733 41.3794C6.01733 45.4034 7.61585 49.2626 10.4612 52.108C13.3066 54.9533 17.1658 56.5519 21.1897 56.5519C25.2137 56.5519 29.0729 54.9533 31.9183 52.108C34.7636 49.2626 36.3622 45.4034 36.3622 41.3794C36.3622 37.3555 34.7636 33.4963 31.9183 30.6509C29.0729 27.8055 25.2137 26.207 21.1897 26.207ZM28.0863 44.1381H23.9484V48.276C23.9484 49.0076 23.6577 49.7093 23.1404 50.2266C22.623 50.744 21.9214 51.0346 21.1897 51.0346C20.4581 51.0346 19.7564 50.744 19.2391 50.2266C18.7218 49.7093 18.4311 49.0076 18.4311 48.276V44.1381H14.2932C13.5616 44.1381 12.8599 43.8474 12.3426 43.3301C11.8252 42.8127 11.5346 42.1111 11.5346 41.3794C11.5346 40.6478 11.8252 39.9461 12.3426 39.4288C12.8599 38.9115 13.5616 38.6208 14.2932 38.6208H18.4311V34.4829C18.4311 33.7513 18.7218 33.0496 19.2391 32.5323C19.7564 32.0149 20.4581 31.7243 21.1897 31.7243C21.9214 31.7243 22.623 32.0149 23.1404 32.5323C23.6577 33.0496 23.9484 33.7513 23.9484 34.4829V38.6208H28.0863C28.8179 38.6208 29.5196 38.9115 30.0369 39.4288C30.5543 39.9461 30.8449 40.6478 30.8449 41.3794C30.8449 42.1111 30.5543 42.8127 30.0369 43.3301C29.5196 43.8474 28.8179 44.1381 28.0863 44.1381Z" fill="#A162F7"/>
<path d="M74.9828 23.4482H36.3621M74.9828 56.5517H36.3621H74.9828ZM74.9828 45.5172H41.8793H74.9828ZM74.9828 34.4827H41.8793H74.9828Z" stroke="#A162F7" stroke-width="2" stroke-miterlimit="10"/>
</svg>
