<svg width="81" height="81" viewBox="0 0 81 81" fill="none" xmlns="http://www.w3.org/2000/svg">
<path d="M24.25 43H36.75C37.0815 43 37.3995 42.8683 37.6339 42.6339C37.8683 42.3995 38 42.0815 38 41.75V34.25C38 33.9185 37.8683 33.6005 37.6339 33.3661C37.3995 33.1317 37.0815 33 36.75 33H24.25C23.9185 33 23.6005 33.1317 23.3661 33.3661C23.1317 33.6005 23 33.9185 23 34.25V41.75C23 42.0815 23.1317 42.3995 23.3661 42.6339C23.6005 42.8683 23.9185 43 24.25 43ZM25.5 35.5H35.5V40.5H25.5V35.5Z" fill="#A162F7"/>
<path d="M28 45.5H23V48H28V45.5Z" fill="#A162F7"/>
<path d="M38 45.5H33V48H38V45.5Z" fill="#A162F7"/>
<path d="M38 50.5H23V53H38V50.5Z" fill="#A162F7"/>
<path d="M25.5 55.5H23V63H25.5V55.5Z" fill="#A162F7"/>
<path d="M31.75 55.5H29.25V63H31.75V55.5Z" fill="#A162F7"/>
<path d="M38 55.5H35.5V63H38V55.5Z" fill="#A162F7"/>
<path d="M61.7499 46.7499H57.0874L62.0874 41.3499L60.2374 39.6499L53.3624 47.1499C53.1977 47.3287 53.0887 47.5516 53.0487 47.7914C53.0088 48.0311 53.0396 48.2774 53.1374 48.4999C53.2324 48.7177 53.3875 48.904 53.5845 49.0368C53.7816 49.1696 54.0124 49.2436 54.2499 49.2499H58.9124L53.9124 54.6499L55.7624 56.3499L62.6374 48.8499C62.8021 48.6711 62.9111 48.4482 62.9511 48.2084C62.9911 47.9687 62.9602 47.7224 62.8624 47.4999C62.7675 47.2821 62.6124 47.0958 62.4153 46.963C62.2183 46.8302 61.9875 46.7562 61.7499 46.7499Z" fill="#A162F7"/>
<path d="M71.75 8H29.25V10.5H70.5V15.5H68V14.25C68 13.9185 67.8683 13.6005 67.6339 13.3661C67.3995 13.1317 67.0815 13 66.75 13H49.25C48.9185 13 48.6005 13.1317 48.3661 13.3661C48.1317 13.6005 48 13.9185 48 14.25V19.25C48 19.5815 48.1317 19.8995 48.3661 20.1339C48.6005 20.3683 48.9185 20.5 49.25 20.5H51.75V23H9.25C8.91848 23 8.60054 23.1317 8.36612 23.3661C8.1317 23.6005 8 23.9185 8 24.25V66.75C8 67.0815 8.1317 67.3995 8.36612 67.6339C8.60054 67.8683 8.91848 68 9.25 68H11.75V71.75C11.75 72.0815 11.8817 72.3995 12.1161 72.6339C12.3505 72.8683 12.6685 73 13 73H23C23.3315 73 23.6495 72.8683 23.8839 72.6339C24.1183 72.3995 24.25 72.0815 24.25 71.75V68H56.75V71.75C56.75 72.0815 56.8817 72.3995 57.1161 72.6339C57.3505 72.8683 57.6685 73 58 73H68C68.3315 73 68.6495 72.8683 68.8839 72.6339C69.1183 72.3995 69.25 72.0815 69.25 71.75V68H71.75C72.0815 68 72.3995 67.8683 72.6339 67.6339C72.8683 67.3995 73 67.0815 73 66.75V24.25C73 23.9185 72.8683 23.6005 72.6339 23.3661C72.3995 23.1317 72.0815 23 71.75 23H64.25V20.5H66.75C67.0815 20.5 67.3995 20.3683 67.6339 20.1339C67.8683 19.8995 68 19.5815 68 19.25V18H71.75C72.0815 18 72.3995 17.8683 72.6339 17.6339C72.8683 17.3995 73 17.0815 73 16.75V9.25C73 8.91848 72.8683 8.60054 72.6339 8.36612C72.3995 8.1317 72.0815 8 71.75 8ZM21.75 70.5H14.25V68H21.75V70.5ZM18 60.5H15.5V58H18V60.5ZM18 35.5H15.5V33H18V35.5ZM48 65.5H20.5V30.5H48V65.5ZM50.5 65.5V30.5H65.5V65.5H50.5ZM66.75 70.5H59.25V68H66.75V70.5ZM70.5 25.5V65.5H68V29.25C68 28.9185 67.8683 28.6005 67.6339 28.3661C67.3995 28.1317 67.0815 28 66.75 28H19.25C18.9185 28 18.6005 28.1317 18.3661 28.3661C18.1317 28.6005 18 28.9185 18 29.25V30.5H14.25C13.9185 30.5 13.6005 30.6317 13.3661 30.8661C13.1317 31.1005 13 31.4185 13 31.75V36.75C13 37.0815 13.1317 37.3995 13.3661 37.6339C13.6005 37.8683 13.9185 38 14.25 38H18V55.5H14.25C13.9185 55.5 13.6005 55.6317 13.3661 55.8661C13.1317 56.1005 13 56.4185 13 56.75V61.75C13 62.0815 13.1317 62.3995 13.3661 62.6339C13.6005 62.8683 13.9185 63 14.25 63H18V65.5H10.5V25.5H70.5ZM54.25 23V20.5H56.75V23H54.25ZM59.25 23V20.5H61.75V23H59.25ZM65.5 18H50.5V15.5H65.5V18Z" fill="#A162F7"/>
</svg>
