<svg width="61" height="60" viewBox="0 0 61 60" fill="none" xmlns="http://www.w3.org/2000/svg">
<path d="M47.1825 7.22184H42.0259C41.5701 6.47664 40.756 5.97355 39.8204 5.97355H33.6368C33.9412 5.44164 34.129 4.83402 34.129 4.17801C34.129 2.17844 32.5023 0.551758 30.5027 0.551758C28.4982 0.551758 26.8671 2.17844 26.8671 4.17801C26.8671 4.83414 27.0554 5.44164 27.3607 5.97355H21.1797C20.2441 5.97355 19.43 6.47664 18.9743 7.22184H13.8177C12.1946 7.22184 10.874 8.54242 10.874 10.1655V56.5046C10.874 58.1276 12.1946 59.4482 13.8177 59.4482H47.1824C48.8054 59.4482 50.126 58.1276 50.126 56.5046V10.1655C50.1261 8.54242 48.8055 7.22184 47.1825 7.22184ZM28.7077 4.17789C28.7077 3.1934 29.5129 2.39219 30.5028 2.39219C31.4873 2.39219 32.2885 3.1934 32.2885 4.17789C32.2885 5.16777 31.4873 5.97344 30.5028 5.97344C29.5129 5.97355 28.7077 5.16777 28.7077 4.17789ZM20.4286 8.56492C20.4286 8.15113 20.7656 7.8141 21.1798 7.8141H39.8204C40.2347 7.8141 40.5717 8.15113 40.5717 8.56492V9.62453C40.5717 11.0548 39.4079 12.2186 37.9776 12.2186H23.0226C21.5923 12.2186 20.4286 11.0548 20.4286 9.62453V8.56492ZM48.2856 56.5044C48.2856 57.1129 47.7908 57.6075 47.1825 57.6075H13.8178C13.2093 57.6075 12.7147 57.1128 12.7147 56.5044V10.1655C12.7147 9.55703 13.2095 9.06238 13.8178 9.06238H18.588V9.62453C18.588 12.0699 20.5773 14.0591 23.0226 14.0591H37.9777C40.4231 14.0591 42.4124 12.0699 42.4124 9.62453V9.06238H47.1826C47.791 9.06238 48.2857 9.55715 48.2857 10.1655V56.5044H48.2856Z" fill="#A162F7"/>
<path d="M28.5477 34.4883H34.2328C34.7411 34.4883 35.1531 34.0763 35.1531 33.568C35.1531 33.0598 34.7411 32.6478 34.2328 32.6478H28.5477C28.0395 32.6478 27.6274 33.0598 27.6274 33.568C27.6274 34.0763 28.0395 34.4883 28.5477 34.4883ZM28.5477 39.0038H43.4156C43.9239 39.0038 44.3359 38.5917 44.3359 38.0835C44.3359 37.5753 43.9239 37.1632 43.4156 37.1632H28.5477C28.0395 37.1632 27.6274 37.5753 27.6274 38.0835C27.6274 38.5917 28.0395 39.0038 28.5477 39.0038ZM21.2827 40.7508C23.8246 40.7508 25.8929 38.6785 25.8929 36.1315C25.8929 33.5846 23.8246 31.5122 21.2827 31.5122C18.7362 31.5122 16.6643 33.5846 16.6643 36.1315C16.6643 38.6785 18.7362 40.7508 21.2827 40.7508ZM21.2827 33.3528C22.81 33.3528 24.0524 34.5993 24.0524 36.1315C24.0524 37.6637 22.81 38.9103 21.2827 38.9103C19.7509 38.9103 18.5049 37.6637 18.5049 36.1315C18.5049 34.5993 19.7508 33.3528 21.2827 33.3528Z" fill="#A162F7"/>
<path d="M20.1719 37.4914C20.5299 37.8494 21.1129 37.8521 21.4736 37.4914L22.8917 36.0733C23.2512 35.7138 23.2512 35.1315 22.8917 34.7721C22.5321 34.4125 21.9498 34.4125 21.5904 34.7721L20.8073 35.5552C20.4523 35.3306 19.9759 35.3737 19.6655 35.6824C19.306 36.0419 19.306 36.6242 19.665 36.9841L20.1719 37.4914ZM28.55 45.1501C28.0417 45.1501 27.6297 45.5621 27.6297 46.0704C27.6297 46.5786 28.0417 46.9906 28.55 46.9906H34.2346C34.7429 46.9906 35.1549 46.5786 35.1549 46.0704C35.1549 45.5621 34.7429 45.1501 34.2346 45.1501H28.55ZM43.4178 49.6656H28.55C28.0417 49.6656 27.6297 50.0776 27.6297 50.5858C27.6297 51.0941 28.0417 51.5061 28.55 51.5061H43.4179C43.9261 51.5061 44.3382 51.0941 44.3382 50.5858C44.338 50.0776 43.926 49.6656 43.4178 49.6656ZM24.979 44.0145H17.5824C17.0741 44.0145 16.6621 44.4266 16.6621 44.9348V52.3329C16.6621 52.8411 17.0741 53.2531 17.5824 53.2531H24.979C25.4873 53.2531 25.8993 52.8411 25.8993 52.3329V44.9348C25.8993 44.4266 25.4871 44.0145 24.979 44.0145ZM24.0588 51.4126H18.5027V45.8551H24.0588V51.4126ZM28.55 21.7225H34.2346C34.7429 21.7225 35.1549 21.3105 35.1549 20.8023C35.1549 20.294 34.7429 19.882 34.2346 19.882H28.55C28.0417 19.882 27.6297 20.294 27.6297 20.8023C27.6297 21.3105 28.0417 21.7225 28.55 21.7225ZM43.4178 24.3971H28.55C28.0417 24.3971 27.6297 24.8091 27.6297 25.3174C27.6297 25.8256 28.0417 26.2377 28.55 26.2377H43.4179C43.9261 26.2377 44.3382 25.8256 44.3382 25.3174C44.338 24.8091 43.926 24.3971 43.4178 24.3971ZM24.979 18.7461H17.5824C17.0741 18.7461 16.6621 19.1581 16.6621 19.6664V27.0644C16.6621 27.5727 17.0741 27.9847 17.5824 27.9847H24.979C25.4873 27.9847 25.8993 27.5727 25.8993 27.0644V19.6664C25.8993 19.1582 25.4871 18.7461 24.979 18.7461ZM24.0588 26.1441H18.5027V20.5866H24.0588V26.1441Z" fill="#A162F7"/>
</svg>
