<svg width="81" height="81" viewBox="0 0 81 81" fill="none" xmlns="http://www.w3.org/2000/svg">
<path d="M27.2648 63.2616H64.807C65.0401 63.2616 65.2637 63.169 65.4285 63.0042C65.5933 62.8394 65.6859 62.6158 65.6859 62.3827C65.6859 62.1496 65.5933 61.9261 65.4285 61.7612C65.2637 61.5964 65.0401 61.5038 64.807 61.5038H27.2648C27.0317 61.5038 26.8082 61.5964 26.6434 61.7612C26.4785 61.9261 26.3859 62.1496 26.3859 62.3827C26.3859 62.6158 26.4785 62.8394 26.6434 63.0042C26.8082 63.169 27.0317 63.2616 27.2648 63.2616ZM27.2648 40.9058H64.807C65.0401 40.9058 65.2637 40.8132 65.4285 40.6483C65.5933 40.4835 65.6859 40.26 65.6859 40.0269C65.6859 39.7938 65.5933 39.5702 65.4285 39.4054C65.2637 39.2405 65.0401 39.1479 64.807 39.1479H27.2648C27.0317 39.1479 26.8082 39.2405 26.6434 39.4054C26.4785 39.5702 26.3859 39.7938 26.3859 40.0269C26.3859 40.26 26.4785 40.4835 26.6434 40.6483C26.8082 40.8132 27.0317 40.9058 27.2648 40.9058ZM21.818 65.1167C21.2508 65.1167 20.7633 64.7651 20.6977 64.3069C20.6916 64.2682 20.6885 64.229 20.6883 64.1897C20.6883 63.9566 20.5957 63.7331 20.4309 63.5683C20.266 63.4034 20.0425 63.3108 19.8094 63.3108C19.5763 63.3108 19.3527 63.4034 19.1879 63.5683C19.0231 63.7331 18.9305 63.9566 18.9305 64.1897C18.9308 64.3192 18.9409 64.4485 18.9609 64.5765C19.1637 65.8866 20.393 66.8745 21.818 66.8745C23.4105 66.8745 24.7055 65.6698 24.7055 64.1897C24.702 63.5119 24.4317 62.8627 23.9531 62.3827C24.4317 61.9027 24.702 61.2535 24.7055 60.5757C24.7055 59.0944 23.4164 57.8897 21.818 57.8897C20.4504 57.8897 19.2609 58.7933 18.9891 60.0378C18.9641 60.1505 18.9616 60.2671 18.9818 60.3807C19.0019 60.4944 19.0442 60.603 19.1062 60.7004C19.1683 60.7977 19.249 60.8819 19.3436 60.948C19.4382 61.0142 19.5449 61.0611 19.6576 61.086C19.7703 61.111 19.8869 61.1134 20.0006 61.0933C20.1142 61.0732 20.2229 61.0309 20.3202 60.9689C20.4175 60.9068 20.5017 60.8261 20.5679 60.7315C20.634 60.6369 20.6809 60.5302 20.7059 60.4175C20.8008 59.9815 21.2801 59.6522 21.818 59.6522C22.4414 59.6522 22.9477 60.0683 22.9477 60.5804C22.9477 61.0925 22.4414 61.5085 21.818 61.5085C21.5849 61.5085 21.3613 61.6011 21.1965 61.7659C21.0317 61.9308 20.9391 62.1543 20.9391 62.3874C20.9391 62.6205 21.0317 62.8441 21.1965 63.0089C21.3613 63.1737 21.5849 63.2663 21.818 63.2663C22.4414 63.2663 22.9477 63.6823 22.9477 64.1944C22.9477 64.7065 22.4414 65.1167 21.818 65.1167ZM18.8051 38.8069C19.034 38.8517 19.2713 38.8038 19.4648 38.6737C19.6584 38.5436 19.7925 38.342 19.8375 38.1132C19.8788 37.9032 19.9955 37.7156 20.1655 37.5857C20.3356 37.4559 20.5473 37.3927 20.7607 37.4081C20.9742 37.4235 21.1746 37.5165 21.3242 37.6694C21.4739 37.8224 21.5624 38.0249 21.573 38.2386L21.5543 38.3862C21.4257 38.7988 21.2275 39.1864 20.9684 39.5323C19.8832 41.0839 19.2352 41.9323 18.8871 42.387C18.4488 42.9612 18.2297 43.2483 18.3773 43.7288C18.4198 43.8685 18.4952 43.9959 18.5971 44.1003C18.6991 44.2047 18.8247 44.2831 18.9633 44.3288C19.0805 44.3675 19.1836 44.4015 20.5383 44.4015C21.0621 44.4015 21.7758 44.4015 22.7496 44.3839C22.9827 44.3825 23.2057 44.2885 23.3695 44.1227C23.5334 43.9569 23.6246 43.7328 23.6232 43.4997C23.6218 43.2666 23.5279 43.0436 23.3621 42.8798C23.1963 42.7159 22.9722 42.6247 22.7391 42.6261H22.7273C22.1098 42.6343 21.4582 42.6401 20.8934 42.6413C21.2637 42.1433 21.7582 41.4694 22.4039 40.5401C22.8504 39.9026 23.141 39.2991 23.2699 38.7448C23.2768 38.7163 23.2819 38.6873 23.2852 38.6581L23.3191 38.3933C23.324 38.3544 23.3264 38.3152 23.3262 38.2761C23.313 37.6305 23.0632 37.0123 22.6242 36.5388C22.1852 36.0653 21.5876 35.7696 20.9448 35.7077C20.3021 35.6458 19.6591 35.8221 19.1378 36.2031C18.6165 36.5841 18.2533 37.1433 18.1172 37.7745C18.072 38.0026 18.119 38.2393 18.2479 38.4328C18.3768 38.6263 18.5772 38.7608 18.8051 38.8069ZM70.5 22.6831V12.6636C70.4994 11.9645 70.2214 11.2942 69.727 10.7998C69.2327 10.3055 68.5624 10.0275 67.8633 10.0269H13.1367C12.4376 10.0275 11.7673 10.3055 11.273 10.7998C10.7786 11.2942 10.5006 11.9645 10.5 12.6636V24.4409C10.5 24.4503 10.5 24.4597 10.5 24.469C10.5 24.4784 10.5 24.5042 10.5 24.5218C10.5013 24.5344 10.5032 24.5469 10.5059 24.5593C10.507 24.5754 10.5093 24.5915 10.5129 24.6073C10.5153 24.6208 10.5185 24.6341 10.5223 24.6472C10.5223 24.6624 10.5281 24.6765 10.5328 24.6905L10.5469 24.7315L10.5609 24.7714L10.5797 24.8136L10.5973 24.8487C10.6043 24.864 10.6137 24.878 10.6219 24.8933C10.6301 24.9085 10.6336 24.9132 10.6406 24.9226C10.6506 24.9385 10.6616 24.9537 10.6734 24.9683L10.6875 24.9894L16.582 32.3874H11.3789C11.1458 32.3874 10.9223 32.48 10.7574 32.6448C10.5926 32.8097 10.5 33.0332 10.5 33.2663V46.7921C10.5 46.8015 10.5 46.8108 10.5 46.8202C10.5 46.8296 10.5 46.8554 10.5 46.873C10.5 46.8905 10.5 46.8976 10.5059 46.9104C10.5071 46.9266 10.5094 46.9427 10.5129 46.9585C10.5129 46.9714 10.5129 46.9854 10.5223 46.9983C10.5316 47.0112 10.5281 47.0276 10.5328 47.0417L10.5469 47.0827L10.5609 47.1226L10.5797 47.1647L10.5973 47.1999L10.6219 47.2444C10.6289 47.2538 10.6336 47.2644 10.6406 47.2737C10.6477 47.2831 10.6629 47.3054 10.6734 47.3206L10.6875 47.3405L16.582 54.7386H13.1367C12.4384 54.7392 11.7688 55.0165 11.2746 55.5099C10.7804 56.0032 10.5019 56.6723 10.5 57.3706V67.3901C10.5006 68.0892 10.7786 68.7595 11.273 69.2539C11.7673 69.7482 12.4376 70.0262 13.1367 70.0269H67.8633C68.5624 70.0262 69.2327 69.7482 69.727 69.2539C70.2214 68.7595 70.4994 68.0892 70.5 67.3901V55.6128C70.5 55.6034 70.5 55.594 70.5 55.5847C70.5 55.5753 70.5 55.5495 70.5 55.5319C70.4987 55.5193 70.4968 55.5068 70.4941 55.4944C70.493 55.4783 70.4907 55.4622 70.4871 55.4464C70.4847 55.433 70.4815 55.4197 70.4777 55.4065C70.4777 55.3925 70.4777 55.3772 70.4672 55.3632L70.4531 55.3222L70.4391 55.2823L70.4203 55.2401L70.4027 55.205L70.3781 55.1604C70.3711 55.1511 70.3664 55.1405 70.3594 55.1312C70.3523 55.1218 70.3371 55.0995 70.3266 55.0843L70.3125 55.0644L64.418 47.6663H67.8633C68.5624 47.6657 69.2327 47.3877 69.727 46.8933C70.2214 46.399 70.4994 45.7287 70.5 45.0296V33.2616C70.5 33.2522 70.5 33.2429 70.5 33.2335C70.5 33.2241 70.5 33.1983 70.5 33.1808C70.5 33.1632 70.5 33.1562 70.4941 33.1433C70.4929 33.1271 70.4906 33.111 70.4871 33.0952C70.4871 33.0823 70.4813 33.0683 70.4777 33.0554C70.4742 33.0425 70.4777 33.0261 70.4672 33.012L70.4531 32.971L70.4391 32.9312L70.4203 32.889L70.4027 32.8538C70.3957 32.8386 70.3863 32.8245 70.3781 32.8104C70.3726 32.7999 70.3663 32.7897 70.3594 32.78C70.3488 32.7636 70.3383 32.7495 70.3266 32.7343L70.3125 32.7132L64.418 25.3151H67.8633C68.5616 25.3145 69.2312 25.0372 69.7254 24.5438C70.2196 24.0505 70.4981 23.3814 70.5 22.6831ZM68.7422 67.3901C68.7422 67.6232 68.6496 67.8468 68.4848 68.0116C68.3199 68.1764 68.0964 68.269 67.8633 68.269H13.1367C12.9036 68.269 12.6801 68.1764 12.5152 68.0116C12.3504 67.8468 12.2578 67.6232 12.2578 67.3901V57.3706C12.2578 57.1375 12.3504 56.914 12.5152 56.7491C12.6801 56.5843 12.9036 56.4917 13.1367 56.4917H68.7422V67.3901ZM67.7965 54.7339H18.8332L13.2082 47.6663H62.1668L67.7965 54.7339ZM68.7422 45.0343C68.7422 45.2674 68.6496 45.4909 68.4848 45.6558C68.3199 45.8206 68.0964 45.9132 67.8633 45.9132H12.2578V34.1405H68.7422V45.0343ZM67.7965 32.378H18.8332L13.2082 25.3104H62.1668L67.7965 32.378ZM12.2578 23.5573V12.6589C12.2591 12.4266 12.3522 12.2042 12.5169 12.0404C12.6816 11.8766 12.9044 11.7847 13.1367 11.7847H67.8633C68.0964 11.7847 68.3199 11.8773 68.4848 12.0421C68.6496 12.2069 68.7422 12.4305 68.7422 12.6636V22.6831C68.7422 22.9162 68.6496 23.1398 68.4848 23.3046C68.3199 23.4694 68.0964 23.562 67.8633 23.562L12.2578 23.5573ZM64.807 16.7921H27.2648C27.1494 16.7921 27.0351 16.8148 26.9285 16.859C26.8219 16.9032 26.725 16.9679 26.6434 17.0495C26.5617 17.1311 26.497 17.228 26.4528 17.3347C26.4087 17.4413 26.3859 17.5556 26.3859 17.671C26.3859 17.7864 26.4087 17.9007 26.4528 18.0073C26.497 18.114 26.5617 18.2109 26.6434 18.2925C26.725 18.3741 26.8219 18.4388 26.9285 18.483C27.0351 18.5272 27.1494 18.5499 27.2648 18.5499H64.807C65.0401 18.5499 65.2637 18.4573 65.4285 18.2925C65.5933 18.1277 65.6859 17.9041 65.6859 17.671C65.6859 17.4379 65.5933 17.2143 65.4285 17.0495C65.2637 16.8847 65.0401 16.7921 64.807 16.7921ZM20.9039 13.703H19.5832C19.3501 13.703 19.1265 13.7956 18.9617 13.9605C18.7969 14.1253 18.7043 14.3488 18.7043 14.5819C18.7043 14.815 18.7969 15.0386 18.9617 15.2034C19.1265 15.3682 19.3501 15.4608 19.5832 15.4608H20.025V20.7601C20.025 20.9932 20.1176 21.2167 20.2824 21.3815C20.4473 21.5464 20.6708 21.639 20.9039 21.639C21.137 21.639 21.3606 21.5464 21.5254 21.3815C21.6902 21.2167 21.7828 20.9932 21.7828 20.7601V14.5819C21.7828 14.3488 21.6902 14.1253 21.5254 13.9605C21.3606 13.7956 21.137 13.703 20.9039 13.703Z" fill="#A162F7"/>
</svg>
