<svg width="81" height="81" viewBox="0 0 81 81" fill="none" xmlns="http://www.w3.org/2000/svg">
<path fill-rule="evenodd" clip-rule="evenodd" d="M76.7109 3.00009C76.6452 3.00308 76.5799 3.01124 76.5155 3.0245C69.6143 3.05652 63.2582 4.48424 57.4872 6.89657C57.4541 6.90822 57.4216 6.92125 57.3896 6.93563C57.3358 6.95823 57.2772 6.97146 57.2235 6.99423C57.1163 7.04025 57.0161 7.10106 56.9257 7.17489C56.4528 7.39877 55.9331 7.66656 55.3778 7.97079C55.3447 7.98404 55.3121 7.9987 55.2802 8.01473C55.2202 8.04516 55.1643 8.08177 55.1044 8.11239C54.8636 8.24576 54.7237 8.31546 54.4941 8.44442C46.3579 12.7273 39.4958 18.759 33.9618 25.5294C32.8983 25.0845 31.806 24.7507 30.6757 24.6114V24.6163C26.459 24.0965 21.8724 25.6218 17.6093 28.6056C11.9251 32.5841 6.66334 39.1881 3.10245 47.5216C2.99405 47.776 2.9731 48.0592 3.04287 48.3269C3.11265 48.5945 3.26921 48.8315 3.48804 49.0006C3.70687 49.1698 3.97562 49.2616 4.2522 49.2616C4.52878 49.2617 4.79758 49.1701 5.01652 49.0011C10.1755 44.9996 14.1868 42.8425 16.9941 42.336C18.3977 42.0828 19.468 42.2135 20.3632 42.6388C21.135 43.0047 21.814 43.6317 22.4335 44.5675C22.2728 44.941 22.0741 45.3182 21.9208 45.6905C21.8265 45.9192 21.8022 46.1707 21.8508 46.4132C21.8995 46.6557 22.019 46.8783 22.1943 47.0528L24.8798 49.7384C22.5481 53.2521 20.1467 57.252 17.5507 61.7354C17.5463 61.7354 17.5405 61.7349 17.536 61.7598C17.5258 61.7775 17.5161 61.7954 17.5068 61.8136C17.5017 61.8249 17.4968 61.8363 17.4921 61.8477C17.4888 61.8558 17.4855 61.864 17.4823 61.8722C17.468 61.9041 17.4549 61.9367 17.4433 61.9698C17.4399 61.9779 17.4367 61.9861 17.4335 61.9942C17.4242 62.0248 17.416 62.0558 17.4091 62.087C17.3989 62.1273 17.3908 62.168 17.3847 62.2091C17.3807 62.2334 17.3774 62.2578 17.3749 62.2823C17.373 62.2986 17.3713 62.3148 17.37 62.3311C17.3699 62.3409 17.3699 62.3507 17.37 62.3604C17.3695 62.4028 17.3711 62.4452 17.3749 62.4874C17.3769 62.5201 17.3801 62.5526 17.3847 62.585C17.3862 62.5932 17.3879 62.6013 17.3896 62.6095C17.3973 62.6506 17.4071 62.6914 17.4189 62.7315C17.4301 62.7696 17.4431 62.807 17.4579 62.8438C17.4697 62.8753 17.4827 62.9062 17.497 62.9366C17.5133 62.9716 17.5312 63.0058 17.5507 63.0391C17.5523 63.0392 17.554 63.0392 17.5556 63.0391C17.5604 63.0473 17.5653 63.0555 17.5702 63.0636C17.5887 63.0904 17.6083 63.1164 17.6288 63.1417C17.6336 63.1499 17.6385 63.158 17.6435 63.1661C17.6652 63.1931 17.688 63.2191 17.7118 63.2442C17.7323 63.2645 17.7535 63.284 17.7753 63.3028C17.7833 63.3127 17.7914 63.3225 17.7997 63.3321C17.8061 63.3403 17.8126 63.3485 17.8193 63.3565C17.8445 63.3771 17.8706 63.3966 17.8974 63.4151C17.9038 63.4233 17.9103 63.4315 17.9169 63.4395C17.9454 63.4603 17.9747 63.4798 18.0048 63.4981C18.0412 63.5196 18.0787 63.5391 18.1171 63.5567C18.1364 63.5654 18.156 63.5735 18.1757 63.5811C18.1934 63.5897 18.2113 63.5978 18.2294 63.6056C18.2375 63.6056 18.2457 63.6056 18.2538 63.6056C18.286 63.615 18.3186 63.6231 18.3515 63.63C18.3805 63.6392 18.4098 63.6473 18.4394 63.6544C18.4589 63.6548 18.4784 63.6548 18.498 63.6544C18.5321 63.6558 18.5663 63.6558 18.6005 63.6544C18.607 63.6544 18.6135 63.6544 18.62 63.6544C18.7036 63.6546 18.7871 63.6464 18.8691 63.63C18.9086 63.6221 18.9477 63.6123 18.9862 63.6007C19.0277 63.5881 19.0684 63.5735 19.1083 63.5567C19.1552 63.5368 19.2009 63.5139 19.245 63.4884C19.2741 63.4634 19.2942 63.457 19.3232 63.4395C23.7834 60.8512 27.7689 58.4548 31.2714 56.13L33.8642 58.7227C34.0387 58.898 34.2613 59.0175 34.5038 59.0662C34.7463 59.1148 34.9978 59.0905 35.2265 58.9962C35.5916 58.8458 35.9635 58.6507 36.33 58.4932C38.3402 59.8097 39.0563 61.348 38.6103 63.9669C38.1276 66.8009 36.0024 70.8331 32.0038 75.9884C31.8348 76.2073 31.7432 76.4761 31.7432 76.7527C31.7433 77.0293 31.8351 77.298 32.0043 77.5168C32.1734 77.7357 32.4104 77.8922 32.678 77.962C32.9456 78.0318 33.2289 78.0108 33.4833 77.9024C41.817 74.3414 48.4208 69.0798 52.3993 63.3956C56.1963 57.971 57.5836 52.0312 55.4511 46.9893C62.1812 41.547 68.2016 34.8192 72.4872 26.8477C72.661 26.5435 72.7672 26.3416 72.956 26.0128C73.3494 25.3273 73.6936 24.6851 73.9765 24.089C74.0183 24.0256 74.0542 23.9586 74.0839 23.8888C74.0859 23.8841 74.0868 23.8788 74.0888 23.8741C74.1097 23.8272 74.1524 23.7635 74.1718 23.7179C74.2113 23.624 74.2392 23.5256 74.2548 23.4249C76.6489 17.6192 78 11.1595 77.9999 4.25009C77.9999 4.08553 77.9674 3.92259 77.9043 3.77062C77.8411 3.61865 77.7486 3.48064 77.632 3.36451C77.5154 3.24837 77.3771 3.1564 77.2249 3.09387C77.0727 3.03133 76.9096 2.99946 76.745 3.00009C76.7434 3.00008 76.7418 3.00008 76.7402 3.00009C76.7304 2.99997 76.7206 2.99997 76.7109 3.00009ZM75.3632 5.64169C75.2098 11.0849 74.1616 16.1728 72.4237 20.8614L60.2167 8.65927C64.9004 6.90075 69.9313 5.80356 75.3632 5.64169ZM57.5019 9.70419L71.3984 23.63C71.2878 23.8436 71.1561 24.0836 71.0321 24.3136C71.0305 24.3152 71.0289 24.3168 71.0273 24.3184C70.9845 24.3769 70.9469 24.439 70.915 24.504C70.7011 24.9258 70.4605 25.3292 70.2362 25.7442C69.9966 26.1625 69.723 26.6287 69.5575 26.9552C69.5331 27.0042 69.5119 27.0547 69.4941 27.1065C61.4896 40.9747 47.8059 50.8908 34.997 56.3204L33.3612 54.6847C35.4574 53.2144 37.4108 51.7577 39.0302 50.2999C43.7268 46.0719 46.3907 41.5761 45.7978 36.4473C45.7882 36.356 45.7685 36.2659 45.7392 36.1788L45.7148 36.1202C45.6195 35.8452 45.4313 35.6121 45.1825 35.461L45.0849 35.4024C44.9318 35.3084 44.7603 35.2484 44.5819 35.2266V35.2022C39.4534 34.609 34.9498 37.2748 30.7196 41.9698C29.2578 43.5923 27.7982 45.5483 26.3251 47.6485L24.5966 45.92C30.0203 33.1338 39.9137 19.6628 53.7714 11.6768C53.8266 11.6578 53.8805 11.635 53.9325 11.6085C54.8566 11.1397 56.4288 10.2577 57.5019 9.70419ZM54.3427 20.4854C52.7578 20.4854 51.1689 21.0861 49.9677 22.2872C47.5653 24.6897 47.5701 28.6249 49.9726 31.0274C52.375 33.4299 56.3055 33.4299 58.7079 31.0274C61.1103 28.6249 61.1152 24.6897 58.7128 22.2872C57.5116 21.0861 55.9276 20.4854 54.3427 20.4854ZM54.3427 22.9708C55.2826 22.9708 56.2217 23.3313 56.9452 24.0548C58.3923 25.5018 58.3874 27.8129 56.9403 29.2599C55.4933 30.7069 53.1872 30.7069 51.7402 29.2599C50.2931 27.8129 50.2883 25.5018 51.7353 24.0548C52.4588 23.3313 53.4028 22.9708 54.3427 22.9708ZM28.1269 27.1016C29.4923 27.1159 30.7726 27.486 32.038 27.8829C31.6287 28.4401 31.2333 29.0276 30.8319 29.6016C30.8012 29.6448 30.7747 29.6903 30.7441 29.7335C29.7676 31.1356 28.8116 32.5803 27.8925 34.089C27.1184 35.3428 26.4109 36.6011 25.7196 37.8682C25.5977 38.0946 25.4739 38.3133 25.3534 38.5421C24.6759 39.8122 24.0429 41.0751 23.4491 42.3458C22.809 41.637 22.2695 40.7724 21.4374 40.378C20.0033 39.698 18.3357 39.5528 16.5497 39.8751C14.1203 40.3133 11.2358 41.8613 8.07804 43.9083C11.239 38.3025 14.9671 33.5022 19.04 30.6515C21.6442 28.8287 24.2543 27.6666 26.7304 27.2188C27.207 27.1326 27.6717 27.0969 28.1269 27.1016ZM43.0829 37.922C43.0509 41.5442 41.3084 44.8615 37.3554 48.42C33.8096 51.612 28.4665 55.0065 22.331 58.669C25.9906 52.53 29.3816 47.1842 32.5751 43.6397C36.1365 39.687 39.4576 37.9515 43.0829 37.922ZM53.122 48.9425C54.3479 52.826 53.5858 57.342 50.3534 61.96C47.4984 66.039 42.6852 69.7734 37.0673 72.9366C39.1158 69.7544 40.6579 66.8423 41.0761 64.3868C41.5591 61.5509 40.4188 59.267 38.5419 57.4825C39.8548 56.8713 41.1621 56.2198 42.4775 55.5196C42.5423 55.4859 42.6032 55.4509 42.6679 55.4171C43.8279 54.7958 44.9874 54.193 46.1396 53.503C48.6062 52.0636 50.9308 50.538 53.122 48.9425ZM20.0556 55.0167L10.3046 64.7725L11.4862 65.9591L16.6571 60.7882C17.8224 58.7782 18.9526 56.8464 20.0556 55.0167ZM25.8905 61.0274C24.0594 62.1317 22.1287 63.2637 20.1191 64.4307L13.8544 70.6954L15.0409 71.877L25.8905 61.0274ZM16.3495 63.464L9.11808 70.6954L10.3046 71.877L17.536 64.6456C17.5048 64.6456 17.473 64.6215 17.4433 64.6065C17.4334 64.5985 17.4236 64.5904 17.414 64.5821C17.3743 64.5571 17.3352 64.5339 17.2968 64.5089L17.3114 64.5333C17.2649 64.5058 17.2193 64.473 17.1747 64.4405C17.1211 64.403 17.069 64.3609 17.0185 64.3184C17.0085 64.3088 16.9988 64.2991 16.9892 64.2891C16.9691 64.2719 16.9495 64.254 16.9306 64.2354C16.9257 64.2355 16.9208 64.2355 16.9159 64.2354C16.9143 64.2354 16.9127 64.2354 16.911 64.2354C16.9061 64.2274 16.9012 64.2192 16.8964 64.211C16.8789 64.186 16.8597 64.1872 16.8427 64.1622C16.836 64.1525 16.8295 64.1428 16.8232 64.1329C16.8022 64.1079 16.7799 64.0993 16.7597 64.0743C16.7225 64.0343 16.6867 63.9947 16.6523 63.9522C16.6489 63.9425 16.6456 63.9327 16.6425 63.9229C16.5984 63.8679 16.5643 63.8072 16.5253 63.7472C16.466 63.6734 16.4152 63.5931 16.3739 63.5079C16.3667 63.4849 16.3566 63.4787 16.3495 63.464ZM9.11808 65.9591L7.93155 67.1407L9.11808 68.3272L10.2997 67.1407L9.11808 65.9591ZM7.93155 71.877L6.74991 73.0636L7.93155 74.2452L9.11808 73.0636L7.93155 71.877ZM12.6679 71.877L11.4862 73.0636L12.6679 74.2452L13.8544 73.0636L12.6679 71.877Z" fill="#A162F7"/>
</svg>
