<svg width="81" height="80" viewBox="0 0 81 80" fill="none" xmlns="http://www.w3.org/2000/svg">
<path d="M68.3571 37.8571C61.5397 37.8494 55.0037 35.1377 50.183 30.317C45.3623 25.4963 42.6506 18.9603 42.6429 12.1429C42.6429 11.5745 42.4171 11.0295 42.0152 10.6276C41.6134 10.2258 41.0683 10 40.5 10C39.9317 10 39.3866 10.2258 38.9848 10.6276C38.5829 11.0295 38.3571 11.5745 38.3571 12.1429C38.3494 18.9603 35.6377 25.4963 30.817 30.317C25.9963 35.1377 19.4603 37.8494 12.6429 37.8571C12.0745 37.8571 11.5295 38.0829 11.1276 38.4848C10.7258 38.8866 10.5 39.4317 10.5 40C10.5 40.5683 10.7258 41.1134 11.1276 41.5152C11.5295 41.9171 12.0745 42.1429 12.6429 42.1429C19.4603 42.1506 25.9963 44.8623 30.817 49.683C35.6377 54.5037 38.3494 61.0397 38.3571 67.8571C38.3571 68.4255 38.5829 68.9705 38.9848 69.3724C39.3866 69.7742 39.9317 70 40.5 70C41.0683 70 41.6134 69.7742 42.0152 69.3724C42.4171 68.9705 42.6429 68.4255 42.6429 67.8571C42.6506 61.0397 45.3623 54.5037 50.183 49.683C55.0037 44.8623 61.5397 42.1506 68.3571 42.1429C68.9255 42.1429 69.4705 41.9171 69.8724 41.5152C70.2742 41.1134 70.5 40.5683 70.5 40C70.5 39.4317 70.2742 38.8866 69.8724 38.4848C69.4705 38.0829 68.9255 37.8571 68.3571 37.8571ZM40.5 56.7865C38.9846 52.9975 36.7154 49.5558 33.8298 46.6702C30.9442 43.7846 27.5025 41.5154 23.7135 40C27.5025 38.4846 30.9442 36.2154 33.8298 33.3298C36.7154 30.4442 38.9846 27.0025 40.5 23.2135C42.0154 27.0025 44.2846 30.4442 47.1702 33.3298C50.0558 36.2154 53.4975 38.4846 57.2865 40C53.4975 41.5154 50.0558 43.7846 47.1702 46.6702C44.2846 49.5558 42.0154 52.9975 40.5 56.7865Z" fill="#A162F7"/>
</svg>
