<svg width="71" height="81" viewBox="0 0 71 81" fill="none" xmlns="http://www.w3.org/2000/svg">
<path d="M31.6067 10.5204C31.4759 10.4949 31.3141 10.4887 31.0892 10.5287V10.5369C30.6399 10.6168 30.4953 10.7814 30.3213 10.9229C30.1472 11.0638 29.9875 11.2197 29.8243 11.3911C29.498 11.734 29.1571 12.1436 28.8182 12.5492C28.4792 12.9548 28.1443 13.3547 27.8818 13.6457C27.7715 13.7677 27.6866 13.8519 27.6149 13.9209C27.5167 13.9209 27.4006 13.8967 27.2411 13.8798C26.8556 13.8273 26.3461 13.737 25.8284 13.6457C25.3107 13.5553 24.786 13.4627 24.3171 13.4117C24.0826 13.3864 23.8637 13.3705 23.6394 13.3747C23.4151 13.3747 23.1948 13.3508 22.8016 13.58C22.4083 13.8094 22.3296 14.0119 22.2144 14.2043C22.0991 14.3977 22.0056 14.5947 21.9105 14.8121C21.7202 15.2467 21.5329 15.7511 21.3519 16.2495C21.1709 16.7478 20.995 17.2403 20.8468 17.6047C20.7842 17.7582 20.7308 17.8718 20.6866 17.962C20.592 17.9894 20.4753 18.0207 20.317 18.0565C19.9368 18.1406 19.43 18.2311 18.9125 18.3234C18.3949 18.4159 17.8675 18.5125 17.4094 18.6273C17.1803 18.6841 16.9696 18.7425 16.7605 18.8245C16.5514 18.9065 16.3355 18.9526 16.0459 19.3009C15.756 19.6495 15.7521 19.869 15.7091 20.0894C15.6661 20.3095 15.6428 20.5259 15.627 20.7629C15.5954 21.2368 15.5955 21.7759 15.5942 22.3071C15.5928 22.838 15.5935 23.3629 15.5777 23.7568C15.571 23.925 15.556 24.0466 15.5449 24.1469C15.465 24.2058 15.3686 24.2795 15.2286 24.3687C14.8993 24.5794 14.4474 24.8411 13.9925 25.1079C13.5376 25.3747 13.0782 25.6475 12.6865 25.9129C12.4907 26.0453 12.3127 26.1751 12.1444 26.3235C11.9761 26.4728 11.7923 26.589 11.6393 27.0135C11.4864 27.4378 11.5517 27.6459 11.5859 27.8677C11.6201 28.0893 11.6765 28.301 11.7419 28.5289C11.8728 28.9852 12.0521 29.492 12.2307 29.9909C12.4092 30.4897 12.5845 30.9834 12.7029 31.3585C12.7534 31.5183 12.7863 31.6386 12.8097 31.7363C12.7547 31.8205 12.6821 31.9277 12.5797 32.0608C12.3416 32.3726 12.0088 32.7701 11.6721 33.1778C11.3355 33.5856 10.9969 34.0011 10.7193 34.3853C10.5806 34.5766 10.457 34.7591 10.3497 34.9561C10.2424 35.1538 10.1074 35.3273 10.1074 35.7775C10.1074 36.2277 10.2424 36.4018 10.3497 36.5988C10.457 36.7965 10.5806 36.9777 10.7193 37.1697C10.9969 37.5539 11.3355 37.9694 11.6721 38.3771C12.0088 38.785 12.3416 39.1823 12.5797 39.4942C12.6821 39.6287 12.7547 39.7345 12.8097 39.8186C12.7863 39.9174 12.7534 40.0364 12.7029 40.1964C12.5845 40.5715 12.4092 41.065 12.2307 41.564C12.0521 42.0628 11.8728 42.5659 11.7419 43.0219C11.6765 43.2501 11.6201 43.4656 11.5859 43.6872C11.5517 43.9091 11.4863 44.1171 11.6393 44.5415C11.7922 44.966 11.9762 45.083 12.1444 45.2314C12.3127 45.3807 12.4907 45.5094 12.6865 45.6421C13.0782 45.9074 13.5376 46.1802 13.9925 46.447C14.4474 46.7141 14.8992 46.9717 15.2286 47.1821C15.3679 47.2705 15.465 47.344 15.5449 47.4039C15.5561 47.5048 15.5709 47.6293 15.5777 47.7982C15.5936 48.1922 15.5928 48.7167 15.5942 49.2479C15.5955 49.7788 15.5954 50.3138 15.627 50.7879C15.6428 51.0249 15.6662 51.2452 15.7091 51.4656C15.7521 51.6857 15.7562 51.9053 16.0459 52.2541C16.3355 52.6027 16.5514 52.6489 16.7605 52.7305C16.9696 52.8125 17.1803 52.8749 17.4094 52.9317C17.8675 53.0453 18.3949 53.1423 18.9125 53.2356C19.43 53.3281 19.9368 53.4187 20.317 53.5026C20.4753 53.5383 20.5921 53.5697 20.6866 53.597C20.7308 53.6874 20.7842 53.801 20.8468 53.9543C20.942 54.1884 21.0591 54.5176 21.1712 54.825L15.6188 64.283C15.505 64.4765 15.4515 64.6995 15.465 64.9235C15.4785 65.1476 15.5584 65.3625 15.6945 65.541C15.8307 65.7194 16.0169 65.8533 16.2294 65.9254C16.4419 65.9976 16.6711 66.0049 16.8878 65.9463L21.968 64.5828L23.3314 69.6671C23.3902 69.8817 23.511 70.0742 23.6787 70.2205C23.8464 70.3667 24.0536 70.4602 24.2742 70.4891C24.4949 70.5181 24.7191 70.4812 24.9189 70.3832C25.1187 70.2852 25.285 70.1303 25.3972 69.9381L30.6375 60.8661C30.7479 60.9287 30.8813 60.9851 31.0892 61.0222C31.5391 61.1021 31.7313 60.9972 31.9435 60.9236C32.1556 60.85 32.3561 60.7618 32.5677 60.6567C32.9909 60.4464 33.4549 60.1815 33.9106 59.9174C34.3664 59.6531 34.8144 59.3895 35.1591 59.207C35.3035 59.1313 35.4096 59.0785 35.5 59.0386C35.5903 59.0785 35.6974 59.1313 35.8408 59.207C36.186 59.3899 36.6331 59.6531 37.0893 59.9174C37.5455 60.1815 38.0088 60.447 38.4323 60.6567C38.644 60.7618 38.8443 60.85 39.0565 60.9236C39.2687 60.9972 39.4608 61.1021 39.9107 61.0222C40.1168 60.9855 40.2482 60.928 40.3584 60.8661L45.5946 69.9381C45.7064 70.1307 45.8728 70.2859 46.0726 70.3841C46.2724 70.4824 46.4969 70.5194 46.7177 70.4904C46.9385 70.4614 47.1458 70.3678 47.3135 70.2213C47.4813 70.0748 47.6019 69.882 47.6603 69.6671L49.0238 64.5869L54.0998 65.9504C54.3163 66.0083 54.5451 66.0005 54.7571 65.928C54.9691 65.8555 55.1547 65.7215 55.2904 65.5432C55.426 65.3648 55.5055 65.1501 55.5188 64.9265C55.532 64.7028 55.4784 64.4802 55.3647 64.2871L49.8246 54.8414C49.9389 54.5277 50.0563 54.1926 50.1532 53.9543C50.2158 53.8008 50.2691 53.687 50.3133 53.597C50.4079 53.5697 50.5247 53.5383 50.6829 53.5026C51.0632 53.4185 51.57 53.33 52.0875 53.2356C52.605 53.1431 53.1325 53.0463 53.5906 52.9317C53.8196 52.8749 54.0304 52.8125 54.2395 52.7305C54.4486 52.6485 54.6644 52.6021 54.954 52.2541C55.2437 51.9053 55.2478 51.6857 55.2908 51.4656C55.3338 51.2452 55.3572 51.0249 55.3729 50.7879C55.4045 50.3138 55.4045 49.7788 55.4058 49.2479C55.4071 48.7167 55.4064 48.1922 55.4222 47.7982C55.429 47.63 55.4439 47.5044 55.4551 47.4039C55.5349 47.345 55.6322 47.2715 55.7713 47.1821C56.1004 46.9717 56.549 46.7141 57.0034 46.447C57.4578 46.1802 57.918 45.9077 58.3093 45.6421C58.505 45.5096 58.6833 45.3801 58.8514 45.2314C59.0195 45.0821 59.2038 44.9656 59.3566 44.5415C59.5095 44.1171 59.4442 43.9091 59.41 43.6872C59.3758 43.4656 59.3193 43.2501 59.2539 43.0219C59.1231 42.5659 58.9437 42.0628 58.7652 41.564C58.5867 41.065 58.4113 40.5715 58.2929 40.1964C58.2424 40.0366 58.2096 39.9166 58.1861 39.8186C58.2412 39.7345 58.3136 39.6273 58.4161 39.4942C58.6546 39.1823 58.9866 38.785 59.3237 38.3771C59.6608 37.9694 60.0027 37.5539 60.2806 37.1697C60.4196 36.9783 60.5427 36.7959 60.6502 36.5988C60.7577 36.4012 60.8925 36.2281 60.8925 35.7775C60.8925 35.3269 60.7577 35.1531 60.6502 34.9561C60.5427 34.7585 60.4196 34.5772 60.2806 34.3853C60.0027 34.0011 59.6608 33.5856 59.3237 33.1778C58.9866 32.7701 58.6546 32.3685 58.4161 32.0567C58.3137 31.9221 58.2413 31.8205 58.1861 31.7363C58.2096 31.6375 58.2424 31.5185 58.2929 31.3585C58.4114 30.9834 58.5867 30.4897 58.7652 29.9909C58.9437 29.492 59.1231 28.9852 59.2539 28.5289C59.3193 28.301 59.3758 28.0893 59.41 27.8677C59.4442 27.6459 59.5095 27.4378 59.3566 27.0135C59.2038 26.5894 59.0195 26.4722 58.8514 26.3235C58.6833 26.1742 58.505 26.0455 58.3093 25.9129C57.9181 25.6475 57.4578 25.3747 57.0034 25.1079C56.549 24.8409 56.1003 24.5794 55.7713 24.3687C55.6315 24.2783 55.5349 24.2066 55.4551 24.1469C55.4439 24.046 55.429 23.9239 55.4222 23.7568C55.4065 23.3629 55.4071 22.838 55.4058 22.3071C55.4045 21.7759 55.4045 21.2368 55.3729 20.7629C55.3572 20.5259 55.3338 20.3095 55.2908 20.0894C55.2479 19.869 55.2438 19.6495 54.954 19.3009C54.6645 18.952 54.4486 18.9063 54.2395 18.8245C54.0303 18.7425 53.8197 18.6841 53.5906 18.6273C53.1324 18.5138 52.605 18.4168 52.0875 18.3234C51.5699 18.2309 51.0632 18.1404 50.6829 18.0565C50.5247 18.0207 50.4079 17.9894 50.3133 17.962C50.2691 17.8716 50.2158 17.7582 50.1532 17.6047C50.005 17.2403 49.829 16.7478 49.648 16.2495C49.467 15.7511 49.2797 15.2467 49.0895 14.8121C48.9944 14.5947 48.9008 14.3969 48.7856 14.2043C48.6707 14.0129 48.5883 13.8084 48.1983 13.58C47.8052 13.3504 47.5848 13.3789 47.3605 13.3747C47.1362 13.3747 46.9174 13.3948 46.6829 13.4117C46.2139 13.4621 45.6893 13.5547 45.1716 13.6457C44.6539 13.7362 44.1443 13.8285 43.7588 13.8798C43.5994 13.9009 43.4832 13.9125 43.3851 13.9209C43.3134 13.8515 43.2285 13.7673 43.1182 13.6457C42.8556 13.3547 42.5208 12.9548 42.1818 12.5492C41.8428 12.1436 41.4979 11.7299 41.1715 11.387C41.0083 11.2146 40.8528 11.0644 40.6787 10.9229C40.5046 10.782 40.3606 10.6127 39.9107 10.5328C39.4607 10.4529 39.2687 10.5536 39.0565 10.6272C38.8443 10.7008 38.644 10.7933 38.4323 10.8983C38.0087 11.1085 37.5456 11.3734 37.0893 11.6375C36.6331 11.9018 36.186 12.1655 35.8408 12.348C35.6975 12.4237 35.5903 12.4682 35.5 12.5081C35.4096 12.4682 35.3034 12.4237 35.1591 12.348C34.8144 12.165 34.3664 11.9018 33.9106 11.6375C33.4549 11.3734 32.9909 11.1081 32.5677 10.8983C32.3561 10.7931 32.1556 10.7006 31.9435 10.6272C31.8374 10.5904 31.7375 10.5459 31.6067 10.5204ZM31.4753 12.7217C31.5325 12.7469 31.5657 12.7538 31.6354 12.7874C31.9655 12.9514 32.4058 13.2004 32.8552 13.4609C33.3045 13.7215 33.7626 13.9907 34.1735 14.2084C34.3789 14.3177 34.5708 14.4164 34.7649 14.4959C34.9589 14.5758 35.1143 14.6683 35.5 14.6683C35.8856 14.6683 36.0369 14.5758 36.231 14.4959C36.4251 14.416 36.6168 14.3173 36.8224 14.2084C37.2336 13.991 37.6949 13.7215 38.1448 13.4609C38.5946 13.2004 39.034 12.951 39.3645 12.7874C39.4349 12.7517 39.467 12.7469 39.5247 12.7217C39.5699 12.7659 39.5981 12.784 39.652 12.8408C39.9072 13.1089 40.2377 13.5004 40.5719 13.9004C40.9062 14.3005 41.2453 14.7124 41.5576 15.0585C41.7137 15.2309 41.8586 15.3847 42.0134 15.5267C42.1682 15.6697 42.2807 15.8086 42.6418 15.9415C43.0029 16.0739 43.1795 16.0402 43.3892 16.0318C43.5989 16.0318 43.8122 16.0018 44.0422 15.9702C44.5021 15.9071 45.0267 15.8125 45.5371 15.7238C46.0475 15.6334 46.5476 15.5494 46.9129 15.5102C46.9904 15.5102 47.0228 15.5107 47.0854 15.4897C47.1141 15.5486 47.1304 15.5783 47.1634 15.654C47.3125 15.9948 47.4941 16.4766 47.6726 16.9682C47.8511 17.4598 48.0305 17.9644 48.2065 18.3973C48.2945 18.6137 48.3804 18.8104 48.4776 18.9969C48.5747 19.1841 48.6327 19.3525 48.9252 19.6007C49.218 19.8488 49.3947 19.877 49.5946 19.9415C49.7945 20.0067 50.0003 20.0594 50.2271 20.1099C50.6807 20.2108 51.2035 20.3012 51.7138 20.3933C52.224 20.4858 52.7244 20.5762 53.0813 20.6643C53.1603 20.6853 53.1918 20.7009 53.2538 20.7177C53.261 20.7829 53.2687 20.8184 53.2744 20.9025C53.2991 21.2747 53.3018 21.7874 53.3031 22.3112C53.3044 22.8349 53.3048 23.3713 53.3236 23.8389C53.3331 24.0727 53.3448 24.2874 53.3729 24.496C53.401 24.7042 53.4009 24.8831 53.5906 25.2147C53.7798 25.5459 53.9344 25.6355 54.0998 25.765C54.2652 25.8954 54.4419 26.0173 54.6378 26.1428C55.0297 26.3937 55.4916 26.6599 55.9397 26.9231C56.3878 27.1864 56.8251 27.4468 57.1307 27.6542C57.1994 27.7004 57.2257 27.7251 57.2785 27.765C57.2627 27.8302 57.2569 27.8678 57.2333 27.9498C57.1307 28.3075 56.9618 28.7925 56.7857 29.2846C56.6096 29.7768 56.4295 30.2764 56.2888 30.722C56.2184 30.9448 56.1564 31.1531 56.1122 31.3585C56.068 31.5646 56.0057 31.7313 56.0711 32.106C56.1366 32.4811 56.2512 32.6176 56.3627 32.7959C56.4742 32.9746 56.6028 33.1526 56.7446 33.338C57.0282 33.7087 57.369 34.1146 57.7015 34.5167C58.034 34.9189 58.3586 35.3166 58.5763 35.6173C58.6271 35.6867 58.6458 35.7207 58.6831 35.7775C58.6458 35.8342 58.6271 35.8682 58.5763 35.9376C58.3586 36.2385 58.034 36.6319 57.7015 37.0342C57.369 37.4362 57.0282 37.846 56.7446 38.2169C56.6028 38.402 56.4742 38.5725 56.3627 38.7508C56.2512 38.9295 56.1366 39.0739 56.0711 39.449C56.0057 39.8237 56.068 39.9908 56.1122 40.1964C56.1564 40.4025 56.2184 40.606 56.2888 40.8289C56.4295 41.2744 56.6096 41.7783 56.7857 42.2704C56.9618 42.7624 57.1307 43.2474 57.2333 43.6051C57.2569 43.6871 57.2628 43.7247 57.2785 43.7899C57.2257 43.8299 57.1994 43.8524 57.1307 43.9008C56.8251 44.109 56.3877 44.3685 55.9397 44.6318C55.4916 44.8949 55.0297 45.1615 54.6378 45.4121C54.4419 45.5383 54.2652 45.6563 54.0998 45.7858C53.9345 45.9162 53.7799 46.005 53.5906 46.3361C53.4011 46.6677 53.401 46.8421 53.3729 47.0507C53.3448 47.2589 53.333 47.4783 53.3236 47.7119C53.3049 48.1796 53.3046 48.7116 53.3031 49.2356C53.3018 49.7593 53.2991 50.272 53.2744 50.6442C53.2687 50.7283 53.2612 50.7658 53.2538 50.8331C53.1919 50.8542 53.1601 50.8614 53.0813 50.8824C52.7243 50.9707 52.224 51.0655 51.7138 51.1576C51.2035 51.2501 50.6807 51.3404 50.2271 51.4409C50.0003 51.4914 49.7945 51.54 49.5946 51.6052C49.3947 51.6704 49.218 51.7019 48.9252 51.9502C48.6325 52.1981 48.5747 52.3674 48.4776 52.5539C48.3804 52.741 48.2945 52.9371 48.2065 53.1535C48.0305 53.5864 47.8511 54.0911 47.6726 54.5827C47.4941 55.0743 47.3125 55.5519 47.1634 55.8927C47.1297 55.9684 47.1104 56.0023 47.0812 56.0611C47.0197 56.0611 46.9886 56.0616 46.9129 56.0406C46.5476 56.0006 46.0475 55.9166 45.5371 55.827C45.0267 55.7366 44.5021 55.642 44.0422 55.5806C43.8122 55.5491 43.5989 55.5233 43.3892 55.5149C43.1795 55.5149 43.0029 55.4769 42.6418 55.6094C42.2805 55.7418 42.1683 55.8781 42.0134 56.0201C41.8586 56.163 41.7137 56.3193 41.5576 56.4923C41.2453 56.8384 40.9062 57.2505 40.5719 57.6505C40.2376 58.0506 39.9073 58.4376 39.652 58.7059C39.5975 58.7627 39.5703 58.785 39.5247 58.8291C39.4672 58.8039 39.4346 58.793 39.3645 58.7593C39.034 58.5953 38.5946 58.3422 38.1448 58.0817C37.6949 57.8212 37.2336 57.5519 36.8224 57.3342C36.6168 57.2249 36.4251 57.1301 36.231 57.0509C36.0369 56.971 35.8856 56.8784 35.5 56.8784C35.1143 56.8784 34.9589 56.971 34.7649 57.0509C34.5708 57.1308 34.3789 57.2296 34.1735 57.3383C33.7626 57.556 33.3045 57.8255 32.8552 58.0858C32.4058 58.3463 31.9655 58.5955 31.6354 58.7593C31.5655 58.793 31.5327 58.8039 31.4753 58.8291C31.4297 58.785 31.4024 58.7648 31.348 58.7059C31.0927 58.4376 30.7623 58.0506 30.428 57.6505C30.0938 57.2505 29.7547 56.8384 29.4424 56.4923C29.2863 56.3199 29.1414 56.1622 28.9865 56.0201C28.8317 55.8792 28.7195 55.7423 28.3582 55.6094C27.997 55.4769 27.8205 55.5065 27.6107 55.5149C27.401 55.5149 27.1877 55.5491 26.9578 55.5806C26.4978 55.6437 25.9733 55.7383 25.4629 55.827C24.9525 55.9174 24.4524 56.0015 24.0871 56.0406C24.0114 56.0406 23.9802 56.0401 23.9187 56.0611C23.8895 56.0023 23.8702 55.9705 23.8366 55.8927C23.6874 55.5519 23.5058 55.0743 23.3273 54.5827C23.1488 54.0911 22.9694 53.5864 22.7934 53.1535C22.7054 52.9371 22.6195 52.7404 22.5224 52.5539C22.4252 52.3667 22.3674 52.1981 22.0747 51.9502C21.782 51.7019 21.6052 51.6698 21.4053 51.6052C21.2054 51.54 20.9997 51.4914 20.7729 51.4409C20.3192 51.34 19.7965 51.2497 19.2862 51.1576C18.7759 51.065 18.2756 50.9703 17.9186 50.8824C17.8399 50.8614 17.808 50.8521 17.7461 50.8331C17.7388 50.7658 17.7313 50.7283 17.7256 50.6442C17.7008 50.272 17.6982 49.7593 17.6969 49.2356C17.6955 48.7116 17.6951 48.1796 17.6763 47.7119C17.6669 47.4783 17.6551 47.2593 17.627 47.0507C17.5989 46.8426 17.5988 46.6677 17.4094 46.3361C17.2198 46.0045 17.0657 45.9151 16.9001 45.7858C16.7346 45.6555 16.5542 45.5376 16.358 45.4121C15.9657 45.1615 15.5047 44.8949 15.0562 44.6318C14.6076 44.3685 14.1711 44.1081 13.8652 43.9008C13.7963 43.8545 13.7702 43.8299 13.7173 43.7899C13.7331 43.7247 13.7389 43.6871 13.7625 43.6051C13.8651 43.2474 14.0341 42.7624 14.2101 42.2704C14.3862 41.7783 14.5664 41.2744 14.7071 40.8289C14.7774 40.606 14.8395 40.4021 14.8837 40.1964C14.9279 39.9904 14.9901 39.8237 14.9247 39.449C14.8594 39.0745 14.7444 38.9291 14.6332 38.7508C14.5219 38.5721 14.3928 38.4022 14.2512 38.2169C13.9681 37.846 13.6263 37.4364 13.2943 37.0342C12.9623 36.6321 12.641 36.2385 12.4237 35.9376C12.373 35.8682 12.3541 35.8342 12.3169 35.7775C12.3541 35.7207 12.373 35.6867 12.4237 35.6173C12.641 35.3166 12.9623 34.9189 13.2943 34.5167C13.6263 34.1144 13.9681 33.7046 14.2512 33.3339C14.3928 33.1489 14.5219 32.9742 14.6332 32.7959C14.7444 32.6172 14.8593 32.4807 14.9247 32.106C14.9901 31.7313 14.9279 31.5642 14.8837 31.3585C14.8395 31.1525 14.7774 30.9448 14.7071 30.722C14.5664 30.2764 14.3862 29.7768 14.2101 29.2846C14.0341 28.7925 13.8651 28.3075 13.7625 27.9498C13.7389 27.8678 13.7331 27.8302 13.7173 27.765C13.7702 27.7251 13.7963 27.7004 13.8652 27.6542C14.1711 27.446 14.6076 27.1862 15.0562 26.9231C15.5047 26.6599 15.9657 26.3937 16.358 26.1428C16.5542 26.0167 16.7346 25.8945 16.9001 25.765C17.0657 25.6346 17.2199 25.5463 17.4094 25.2147C17.5991 24.8829 17.5989 24.7044 17.627 24.496C17.6551 24.2878 17.6669 24.0727 17.6763 23.8389C17.6951 23.3713 17.6955 22.8349 17.6969 22.3112C17.6982 21.7874 17.7008 21.2747 17.7256 20.9025C17.7312 20.8184 17.7389 20.785 17.7461 20.7177C17.8082 20.6967 17.8396 20.6832 17.9186 20.6643C18.2756 20.576 18.776 20.4856 19.2862 20.3933C19.7964 20.3008 20.3192 20.2104 20.7729 20.1099C20.9997 20.0594 21.2055 20.0067 21.4053 19.9415C21.6052 19.8763 21.782 19.849 22.0747 19.6007C22.3672 19.3525 22.4252 19.1835 22.5224 18.9969C22.6195 18.8098 22.7054 18.6137 22.7934 18.3973C22.9694 17.9644 23.1488 17.4598 23.3273 16.9682C23.5058 16.4766 23.6874 15.9948 23.8366 15.654C23.8695 15.5783 23.8859 15.5486 23.9146 15.4897C23.9772 15.4897 24.0096 15.4892 24.0871 15.5102C24.4524 15.5502 24.9525 15.6342 25.4629 15.7238C25.9733 15.8142 26.4978 15.9088 26.9578 15.9702C27.1877 16.0018 27.401 16.0275 27.6107 16.0359C27.8205 16.0359 27.997 16.0739 28.3582 15.9415C28.7194 15.809 28.8317 15.6727 28.9865 15.5308C29.1414 15.3878 29.2863 15.2315 29.4424 15.0585C29.7547 14.7124 30.0938 14.3005 30.428 13.9004C30.7623 13.5004 31.0927 13.1091 31.348 12.8408C31.4019 12.784 31.43 12.7659 31.4753 12.7217ZM35.5 17.9127C25.6408 17.9127 17.627 25.9266 17.627 35.7857C17.627 45.645 25.6408 53.6586 35.5 53.6586C45.3592 53.6586 53.3729 45.645 53.3729 35.7857C53.3729 25.9266 45.3592 17.9127 35.5 17.9127ZM35.5 19.8963C44.2859 19.8963 51.3852 26.9998 51.3852 35.7857C51.3852 44.5716 44.2859 51.6709 35.5 51.6709C26.714 51.6709 19.6147 44.5716 19.6147 35.7857C19.6147 26.9998 26.714 19.8963 35.5 19.8963ZM35.4507 25.7198C34.8184 25.7198 34.544 26.0463 34.3336 26.2743C34.1233 26.5022 33.9636 26.75 33.7997 27.0217C33.472 27.5652 33.1543 28.2183 32.8429 28.8821C32.5314 29.5457 32.2287 30.2148 31.9763 30.722C31.8502 30.9755 31.7362 31.192 31.6519 31.3298C31.6349 31.3576 31.6274 31.3662 31.6108 31.3873C31.5878 31.396 31.5789 31.3996 31.5492 31.4078C31.3923 31.4478 31.1558 31.491 30.8757 31.5351C30.3155 31.6255 29.5867 31.7149 28.8592 31.8144C28.1318 31.9132 27.4067 32.0246 26.7894 32.1758C26.4807 32.2515 26.2035 32.3312 25.9228 32.4633C25.6422 32.5957 25.2521 32.7572 25.0604 33.3585C24.8687 33.9601 25.0889 34.3204 25.2411 34.5906C25.3933 34.8606 25.579 35.086 25.7873 35.3257C26.2039 35.8047 26.7296 36.3117 27.2658 36.8124C27.8019 37.3133 28.3472 37.8083 28.7524 38.2046C28.9551 38.4023 29.1236 38.5748 29.2288 38.6974C29.2467 38.7182 29.2483 38.7274 29.2617 38.7467C29.263 38.7736 29.268 38.7837 29.2658 38.8165C29.2549 38.9784 29.2275 39.2225 29.1837 39.5024C29.096 40.0619 28.9563 40.7771 28.8264 41.4983C28.6965 42.2197 28.5737 42.9395 28.5266 43.5722C28.503 43.8885 28.4951 44.1807 28.5348 44.4881C28.5745 44.7957 28.6083 45.2168 29.1221 45.5846C29.6359 45.9524 30.0456 45.8505 30.35 45.7899C30.6544 45.729 30.9281 45.6261 31.2207 45.5025C31.8058 45.255 32.4505 44.9122 33.0934 44.5579C33.7362 44.2036 34.3729 43.8386 34.8757 43.5764C35.1271 43.446 35.3465 43.3427 35.4959 43.2807C35.5268 43.2676 35.5395 43.2676 35.5657 43.2601C35.5881 43.2671 35.5982 43.265 35.6232 43.2766C35.7733 43.3375 35.9944 43.4411 36.2474 43.5681C36.7535 43.8242 37.3908 44.1787 38.038 44.525C38.6852 44.8713 39.3348 45.213 39.923 45.4532C40.2171 45.573 40.4926 45.6711 40.7978 45.7283C41.103 45.7851 41.5124 45.8815 42.0216 45.5066C42.5309 45.1323 42.5648 44.7097 42.6007 44.4018C42.6366 44.0938 42.624 43.8059 42.5966 43.4901C42.5417 42.858 42.4069 42.1359 42.268 41.4162C42.1292 40.6964 41.9847 39.9828 41.8902 39.4243C41.8429 39.1453 41.8087 38.9037 41.7958 38.7426C41.7933 38.7125 41.7949 38.7023 41.7958 38.6769C41.8097 38.6556 41.8131 38.6469 41.8327 38.6235C41.9364 38.4994 42.1007 38.319 42.3009 38.1184C42.7013 37.7172 43.2412 37.2173 43.7711 36.7097C44.301 36.2026 44.8226 35.6948 45.2332 35.2107C45.4385 34.9685 45.6182 34.7354 45.7671 34.4633C45.9159 34.1912 46.1346 33.8346 45.9354 33.2353C45.7363 32.6363 45.3429 32.4735 45.0607 32.3442C44.7785 32.2138 44.4955 32.1372 44.1859 32.0649C43.5668 31.9219 42.8447 31.827 42.1161 31.7363C41.3874 31.6459 40.6568 31.5648 40.0955 31.4817C39.8149 31.4397 39.5752 31.4005 39.4179 31.3626C39.3905 31.356 39.3831 31.3502 39.3604 31.3421C39.343 31.3209 39.3332 31.3131 39.3152 31.2846C39.2292 31.1479 39.116 30.9369 38.9867 30.685C38.7281 30.1808 38.4152 29.5173 38.0955 28.8575C37.7758 28.1976 37.4525 27.5446 37.1181 27.0053C36.9508 26.7355 36.785 26.4915 36.5719 26.266C36.3587 26.0406 36.0829 25.7202 35.4507 25.7239V25.7198ZM35.4671 28.3687C35.6937 28.7617 35.9411 29.2261 36.2022 29.7651C36.5127 30.4058 36.8216 31.0762 37.1099 31.6378C37.254 31.9189 37.3902 32.1709 37.5329 32.3975C37.6755 32.6242 37.7684 32.817 38.1119 33.0629C38.4554 33.3089 38.6683 33.3333 38.9292 33.3955C39.1901 33.4586 39.4748 33.5053 39.7875 33.5516C40.413 33.6441 41.1498 33.7259 41.8574 33.8144C42.4513 33.888 42.9685 33.9729 43.4138 34.0608C43.1094 34.3968 42.7451 34.7768 42.3132 35.1902C41.7987 35.6831 41.2563 36.1844 40.8101 36.6317C40.587 36.8552 40.3907 37.0626 40.2187 37.2682C40.0468 37.4743 39.8869 37.6219 39.7588 38.0239C39.6306 38.4259 39.6757 38.6359 39.6972 38.9028C39.7186 39.1696 39.7595 39.454 39.8122 39.7652C39.9175 40.3876 40.0716 41.1115 40.2064 41.8104C40.3197 42.3979 40.3989 42.9167 40.4528 43.3669C40.0381 43.1819 39.5644 42.9513 39.036 42.6687C38.4075 42.3325 37.7601 41.9728 37.1961 41.6872C36.9141 41.5442 36.6565 41.4216 36.4076 41.3217C36.1587 41.2208 35.9678 41.1163 35.5452 41.1205C35.1224 41.1205 34.9345 41.232 34.6868 41.334C34.4392 41.437 34.1826 41.5657 33.9024 41.7118C33.342 42.0041 32.6991 42.3701 32.0749 42.7139C31.55 43.0032 31.0786 43.2382 30.6662 43.4285C30.7145 42.9775 30.7901 42.4573 30.8962 41.8679C31.0224 41.1675 31.1641 40.4423 31.2617 39.8186C31.3105 39.5068 31.3463 39.2232 31.3644 38.9562C31.3825 38.6889 31.4236 38.4779 31.2905 38.0773C31.1574 37.6769 31.0009 37.5332 30.8264 37.3299C30.6519 37.1259 30.4485 36.9184 30.2227 36.6974C29.771 36.2558 29.2238 35.7628 28.7032 35.2764C28.2658 34.8679 27.8989 34.4918 27.5902 34.1594C28.0346 34.0669 28.5533 33.9734 29.1467 33.8924C29.8531 33.7957 30.584 33.7094 31.2083 33.6091C31.5205 33.5586 31.8025 33.5059 32.0626 33.4407C32.3226 33.3755 32.5394 33.3505 32.8798 33.0998C33.2202 32.8498 33.3068 32.6549 33.4466 32.4263C33.5863 32.1979 33.7207 31.9411 33.8614 31.6583C34.1426 31.0931 34.446 30.4219 34.7484 29.7774C35.0025 29.2359 35.2457 28.7645 35.4671 28.3687ZM22.2595 57.4287C22.3573 57.6002 22.4567 57.7777 22.8016 57.979C23.1948 58.2082 23.4151 58.1781 23.6394 58.1844C23.8637 58.1844 24.0826 58.1642 24.3171 58.1474C24.786 58.0969 25.3107 58.0044 25.8284 57.9133C26.3461 57.8229 26.8556 57.7324 27.2411 57.6792C27.4006 57.6582 27.5167 57.6466 27.6149 57.6381C27.6866 57.7075 27.7715 57.7916 27.8818 57.9133C28.1443 58.2041 28.4792 58.6042 28.8182 59.0098C28.8747 59.0776 28.9299 59.1352 28.9865 59.2029L24.8058 66.4473L23.8571 62.9072C23.7791 62.6181 23.5895 62.3718 23.33 62.2224C23.0705 62.0731 22.7623 62.0328 22.4731 62.1105L18.9618 63.051L22.2595 57.4287ZM48.7322 57.441L52.0259 63.0551L48.5145 62.1146C48.2254 62.0381 47.9176 62.0794 47.6589 62.2295C47.4002 62.3797 47.2116 62.6264 47.1346 62.9154L46.186 66.4473L42.0052 59.2111C42.0644 59.1404 42.1226 59.0807 42.1818 59.0098C42.5207 58.6042 42.8557 58.2041 43.1182 57.9133C43.2285 57.7914 43.3134 57.7073 43.3851 57.6381C43.4832 57.6381 43.5994 57.6624 43.7588 57.6792C44.1443 57.7318 44.6539 57.8223 45.1716 57.9133C45.6893 58.0037 46.2139 58.0963 46.6829 58.1474C46.9174 58.1726 47.1362 58.1886 47.3605 58.1844C47.5848 58.1844 47.8052 58.2082 48.1983 57.979C48.535 57.7826 48.6364 57.6085 48.7322 57.441Z" fill="#A162F7"/>
</svg>
