<svg width="20" height="21" viewBox="0 0 20 21" fill="none" xmlns="http://www.w3.org/2000/svg">
<path fill-rule="evenodd" clip-rule="evenodd" d="M8.59391 2.35367C7.86251 3.28089 7.28361 4.09062 7.30755 4.15321C7.33851 4.23452 7.6018 4.26693 8.23239 4.26693H9.11391L9.09042 7.06515L9.06693 9.86336L6.28946 9.887L3.51199 9.91064L3.48663 8.99157C3.4691 8.3551 3.4287 8.0725 3.35539 8.0725C3.24914 8.0725 0.23348 10.4293 0.0408414 10.6629C-0.0758096 10.8044 -0.0795467 10.801 1.98841 12.4473C2.69534 13.0102 3.32602 13.4505 3.38982 13.4259C3.47426 13.3933 3.50576 13.1404 3.50576 12.494V11.6069L6.28634 11.6306L9.06693 11.6542L9.09042 14.4493L9.11391 17.2444L8.20063 17.2699C7.57244 17.2874 7.28735 17.3284 7.28735 17.4011C7.28735 17.5101 9.61619 20.5327 9.85181 20.7296C10.0037 20.8563 10.0722 20.7811 11.6735 18.7312C12.2107 18.0434 12.6305 17.4289 12.6064 17.3657C12.5747 17.2827 12.3168 17.2506 11.681 17.2506H10.7995L10.823 14.4524L10.8465 11.6542L13.624 11.6306L16.4014 11.6069L16.4268 12.5187C16.4409 13.0248 16.4917 13.4431 16.5411 13.4588C16.6153 13.4824 17.2772 12.9743 19.7832 10.9697L20 10.7963L19.7832 10.5811C19.2762 10.078 16.6206 8.05423 16.5189 8.09345C16.4402 8.12381 16.4077 8.39647 16.4077 9.02354V9.91064L13.6271 9.887L10.8465 9.86336L10.823 7.06828L10.7995 4.2732L11.7128 4.24768C12.3663 4.22941 12.6261 4.19064 12.6261 4.11113C12.6261 3.99759 10.3797 1.08324 10.0861 0.815775C9.93189 0.675372 9.85723 0.752289 8.59391 2.35367Z" fill="white"/>
</svg>
